<mxfile host="app.diagrams.net" modified="2024-04-24T07:36:49.920Z" agent="Mozilla/5.0 (Windows NT 10.0; Win64; x64) AppleWebKit/537.36 (KHTML, like Gecko) Chrome/124.0.0.0 Safari/537.36 Edg/124.0.0.0" etag="i-Cqs7c8qrEYgGFa9ZKm" version="24.2.8" type="github">
  <diagram name="Page-1" id="n93-l6ssAAx4sJ29w0Fe">
    <mxGraphModel dx="3994" dy="1836" grid="1" gridSize="10" guides="1" tooltips="1" connect="1" arrows="1" fold="1" page="1" pageScale="1" pageWidth="850" pageHeight="1100" math="0" shadow="0">
      <root>
        <mxCell id="0" />
        <mxCell id="1" parent="0" />
        <mxCell id="-brsWAgwr_mBDMm-pLbp-1" value="Cliente" style="rounded=0;whiteSpace=wrap;html=1;" vertex="1" parent="1">
          <mxGeometry x="90" y="390" width="120" height="60" as="geometry" />
        </mxCell>
        <mxCell id="-brsWAgwr_mBDMm-pLbp-7" style="edgeStyle=orthogonalEdgeStyle;rounded=0;orthogonalLoop=1;jettySize=auto;html=1;endArrow=none;endFill=0;" edge="1" parent="1" source="-brsWAgwr_mBDMm-pLbp-2" target="-brsWAgwr_mBDMm-pLbp-3">
          <mxGeometry relative="1" as="geometry" />
        </mxCell>
        <mxCell id="-brsWAgwr_mBDMm-pLbp-8" style="edgeStyle=orthogonalEdgeStyle;rounded=0;orthogonalLoop=1;jettySize=auto;html=1;entryX=0.5;entryY=1;entryDx=0;entryDy=0;endArrow=none;endFill=0;" edge="1" parent="1" source="-brsWAgwr_mBDMm-pLbp-2" target="-brsWAgwr_mBDMm-pLbp-1">
          <mxGeometry relative="1" as="geometry" />
        </mxCell>
        <mxCell id="-brsWAgwr_mBDMm-pLbp-2" value="se hace" style="rhombus;whiteSpace=wrap;html=1;" vertex="1" parent="1">
          <mxGeometry x="110" y="570" width="80" height="80" as="geometry" />
        </mxCell>
        <mxCell id="-brsWAgwr_mBDMm-pLbp-11" style="edgeStyle=orthogonalEdgeStyle;rounded=0;orthogonalLoop=1;jettySize=auto;html=1;endArrow=none;endFill=0;" edge="1" parent="1" source="-brsWAgwr_mBDMm-pLbp-3" target="-brsWAgwr_mBDMm-pLbp-10">
          <mxGeometry relative="1" as="geometry" />
        </mxCell>
        <mxCell id="-brsWAgwr_mBDMm-pLbp-3" value="socio" style="rounded=0;whiteSpace=wrap;html=1;" vertex="1" parent="1">
          <mxGeometry x="90" y="810" width="120" height="60" as="geometry" />
        </mxCell>
        <mxCell id="-brsWAgwr_mBDMm-pLbp-6" style="edgeStyle=orthogonalEdgeStyle;rounded=0;orthogonalLoop=1;jettySize=auto;html=1;entryX=0;entryY=0.5;entryDx=0;entryDy=0;endArrow=none;endFill=0;" edge="1" parent="1" source="-brsWAgwr_mBDMm-pLbp-4" target="-brsWAgwr_mBDMm-pLbp-3">
          <mxGeometry relative="1" as="geometry" />
        </mxCell>
        <mxCell id="-brsWAgwr_mBDMm-pLbp-9" style="edgeStyle=orthogonalEdgeStyle;rounded=0;orthogonalLoop=1;jettySize=auto;html=1;exitX=0.5;exitY=0;exitDx=0;exitDy=0;entryX=0;entryY=0.25;entryDx=0;entryDy=0;endArrow=none;endFill=0;" edge="1" parent="1" source="-brsWAgwr_mBDMm-pLbp-4" target="-brsWAgwr_mBDMm-pLbp-3">
          <mxGeometry relative="1" as="geometry" />
        </mxCell>
        <mxCell id="-brsWAgwr_mBDMm-pLbp-4" value="Avala" style="rhombus;whiteSpace=wrap;html=1;" vertex="1" parent="1">
          <mxGeometry x="-70" y="800" width="80" height="80" as="geometry" />
        </mxCell>
        <mxCell id="-brsWAgwr_mBDMm-pLbp-13" style="edgeStyle=orthogonalEdgeStyle;rounded=0;orthogonalLoop=1;jettySize=auto;html=1;endArrow=none;endFill=0;" edge="1" parent="1" source="-brsWAgwr_mBDMm-pLbp-10" target="-brsWAgwr_mBDMm-pLbp-12">
          <mxGeometry relative="1" as="geometry" />
        </mxCell>
        <mxCell id="-brsWAgwr_mBDMm-pLbp-10" value="Envia" style="rhombus;whiteSpace=wrap;html=1;" vertex="1" parent="1">
          <mxGeometry x="300" y="800" width="80" height="80" as="geometry" />
        </mxCell>
        <mxCell id="-brsWAgwr_mBDMm-pLbp-17" style="edgeStyle=orthogonalEdgeStyle;rounded=0;orthogonalLoop=1;jettySize=auto;html=1;entryX=0.5;entryY=1;entryDx=0;entryDy=0;endArrow=none;endFill=0;" edge="1" parent="1" source="-brsWAgwr_mBDMm-pLbp-12" target="-brsWAgwr_mBDMm-pLbp-14">
          <mxGeometry relative="1" as="geometry" />
        </mxCell>
        <mxCell id="-brsWAgwr_mBDMm-pLbp-12" value="Hoja de pedido" style="rounded=0;whiteSpace=wrap;html=1;" vertex="1" parent="1">
          <mxGeometry x="500" y="810" width="120" height="60" as="geometry" />
        </mxCell>
        <mxCell id="-brsWAgwr_mBDMm-pLbp-18" style="edgeStyle=orthogonalEdgeStyle;rounded=0;orthogonalLoop=1;jettySize=auto;html=1;entryX=0.5;entryY=1;entryDx=0;entryDy=0;endArrow=none;endFill=0;" edge="1" parent="1" source="-brsWAgwr_mBDMm-pLbp-14" target="-brsWAgwr_mBDMm-pLbp-16">
          <mxGeometry relative="1" as="geometry" />
        </mxCell>
        <mxCell id="-brsWAgwr_mBDMm-pLbp-14" value="Genera" style="rhombus;whiteSpace=wrap;html=1;" vertex="1" parent="1">
          <mxGeometry x="520" y="640" width="80" height="80" as="geometry" />
        </mxCell>
        <mxCell id="-brsWAgwr_mBDMm-pLbp-20" style="edgeStyle=orthogonalEdgeStyle;rounded=0;orthogonalLoop=1;jettySize=auto;html=1;entryX=0;entryY=0.5;entryDx=0;entryDy=0;endArrow=none;endFill=0;" edge="1" parent="1" source="-brsWAgwr_mBDMm-pLbp-16" target="-brsWAgwr_mBDMm-pLbp-19">
          <mxGeometry relative="1" as="geometry" />
        </mxCell>
        <mxCell id="-brsWAgwr_mBDMm-pLbp-16" value="Pedido" style="rounded=0;whiteSpace=wrap;html=1;" vertex="1" parent="1">
          <mxGeometry x="500" y="470" width="120" height="60" as="geometry" />
        </mxCell>
        <mxCell id="-brsWAgwr_mBDMm-pLbp-23" style="edgeStyle=orthogonalEdgeStyle;rounded=0;orthogonalLoop=1;jettySize=auto;html=1;entryX=0;entryY=0.5;entryDx=0;entryDy=0;endArrow=none;endFill=0;" edge="1" parent="1" source="-brsWAgwr_mBDMm-pLbp-19" target="-brsWAgwr_mBDMm-pLbp-21">
          <mxGeometry relative="1" as="geometry">
            <Array as="points">
              <mxPoint x="780" y="350" />
            </Array>
          </mxGeometry>
        </mxCell>
        <mxCell id="-brsWAgwr_mBDMm-pLbp-19" value="Es" style="rhombus;whiteSpace=wrap;html=1;" vertex="1" parent="1">
          <mxGeometry x="740" y="460" width="80" height="80" as="geometry" />
        </mxCell>
        <mxCell id="-brsWAgwr_mBDMm-pLbp-36" style="edgeStyle=orthogonalEdgeStyle;rounded=0;orthogonalLoop=1;jettySize=auto;html=1;entryX=0.5;entryY=0;entryDx=0;entryDy=0;endArrow=none;endFill=0;" edge="1" parent="1" source="-brsWAgwr_mBDMm-pLbp-21" target="-brsWAgwr_mBDMm-pLbp-33">
          <mxGeometry relative="1" as="geometry" />
        </mxCell>
        <mxCell id="-brsWAgwr_mBDMm-pLbp-21" value="LIbro" style="rounded=0;whiteSpace=wrap;html=1;" vertex="1" parent="1">
          <mxGeometry x="930" y="320" width="120" height="60" as="geometry" />
        </mxCell>
        <mxCell id="-brsWAgwr_mBDMm-pLbp-26" style="edgeStyle=orthogonalEdgeStyle;rounded=0;orthogonalLoop=1;jettySize=auto;html=1;entryX=0.5;entryY=1;entryDx=0;entryDy=0;endArrow=none;endFill=0;" edge="1" parent="1" source="-brsWAgwr_mBDMm-pLbp-22" target="-brsWAgwr_mBDMm-pLbp-19">
          <mxGeometry relative="1" as="geometry" />
        </mxCell>
        <mxCell id="-brsWAgwr_mBDMm-pLbp-37" style="edgeStyle=orthogonalEdgeStyle;rounded=0;orthogonalLoop=1;jettySize=auto;html=1;entryX=0.5;entryY=1;entryDx=0;entryDy=0;endArrow=none;endFill=0;" edge="1" parent="1" source="-brsWAgwr_mBDMm-pLbp-22" target="-brsWAgwr_mBDMm-pLbp-33">
          <mxGeometry relative="1" as="geometry" />
        </mxCell>
        <mxCell id="-brsWAgwr_mBDMm-pLbp-22" value="Disco" style="rounded=0;whiteSpace=wrap;html=1;" vertex="1" parent="1">
          <mxGeometry x="930" y="610" width="120" height="60" as="geometry" />
        </mxCell>
        <mxCell id="-brsWAgwr_mBDMm-pLbp-31" style="edgeStyle=orthogonalEdgeStyle;rounded=0;orthogonalLoop=1;jettySize=auto;html=1;entryX=0.5;entryY=1;entryDx=0;entryDy=0;endArrow=none;endFill=0;" edge="1" parent="1" source="-brsWAgwr_mBDMm-pLbp-27" target="-brsWAgwr_mBDMm-pLbp-30">
          <mxGeometry relative="1" as="geometry" />
        </mxCell>
        <mxCell id="-brsWAgwr_mBDMm-pLbp-32" style="edgeStyle=orthogonalEdgeStyle;rounded=0;orthogonalLoop=1;jettySize=auto;html=1;entryX=0.5;entryY=0;entryDx=0;entryDy=0;endArrow=none;endFill=0;" edge="1" parent="1" source="-brsWAgwr_mBDMm-pLbp-27" target="-brsWAgwr_mBDMm-pLbp-21">
          <mxGeometry relative="1" as="geometry" />
        </mxCell>
        <mxCell id="-brsWAgwr_mBDMm-pLbp-27" value="Pertenece" style="rhombus;whiteSpace=wrap;html=1;" vertex="1" parent="1">
          <mxGeometry x="950" y="150" width="80" height="80" as="geometry" />
        </mxCell>
        <mxCell id="-brsWAgwr_mBDMm-pLbp-30" value="Coleccion" style="rounded=0;whiteSpace=wrap;html=1;" vertex="1" parent="1">
          <mxGeometry x="930" width="120" height="60" as="geometry" />
        </mxCell>
        <mxCell id="-brsWAgwr_mBDMm-pLbp-33" value="Tiene" style="rhombus;whiteSpace=wrap;html=1;" vertex="1" parent="1">
          <mxGeometry x="1160" y="440" width="80" height="80" as="geometry" />
        </mxCell>
        <mxCell id="-brsWAgwr_mBDMm-pLbp-35" style="edgeStyle=orthogonalEdgeStyle;rounded=0;orthogonalLoop=1;jettySize=auto;html=1;entryX=1;entryY=0.5;entryDx=0;entryDy=0;endArrow=none;endFill=0;" edge="1" parent="1" source="-brsWAgwr_mBDMm-pLbp-34" target="-brsWAgwr_mBDMm-pLbp-33">
          <mxGeometry relative="1" as="geometry" />
        </mxCell>
        <mxCell id="-brsWAgwr_mBDMm-pLbp-42" style="edgeStyle=orthogonalEdgeStyle;rounded=0;orthogonalLoop=1;jettySize=auto;html=1;entryX=0;entryY=0.5;entryDx=0;entryDy=0;endArrow=none;endFill=0;" edge="1" parent="1" source="-brsWAgwr_mBDMm-pLbp-34" target="-brsWAgwr_mBDMm-pLbp-40">
          <mxGeometry relative="1" as="geometry" />
        </mxCell>
        <mxCell id="-brsWAgwr_mBDMm-pLbp-34" value="Almacen" style="rounded=0;whiteSpace=wrap;html=1;" vertex="1" parent="1">
          <mxGeometry x="1380" y="450" width="120" height="60" as="geometry" />
        </mxCell>
        <mxCell id="-brsWAgwr_mBDMm-pLbp-45" style="edgeStyle=orthogonalEdgeStyle;rounded=0;orthogonalLoop=1;jettySize=auto;html=1;entryX=0.5;entryY=1;entryDx=0;entryDy=0;endArrow=none;endFill=0;" edge="1" parent="1" source="-brsWAgwr_mBDMm-pLbp-38" target="-brsWAgwr_mBDMm-pLbp-39">
          <mxGeometry relative="1" as="geometry" />
        </mxCell>
        <mxCell id="-brsWAgwr_mBDMm-pLbp-46" style="edgeStyle=orthogonalEdgeStyle;rounded=0;orthogonalLoop=1;jettySize=auto;html=1;entryX=0.5;entryY=1;entryDx=0;entryDy=0;endArrow=none;endFill=0;" edge="1" parent="1" source="-brsWAgwr_mBDMm-pLbp-38" target="-brsWAgwr_mBDMm-pLbp-34">
          <mxGeometry relative="1" as="geometry" />
        </mxCell>
        <mxCell id="-brsWAgwr_mBDMm-pLbp-38" value="Es suministrado" style="rhombus;whiteSpace=wrap;html=1;" vertex="1" parent="1">
          <mxGeometry x="1695" y="595" width="110" height="90" as="geometry" />
        </mxCell>
        <mxCell id="-brsWAgwr_mBDMm-pLbp-39" value="Provincia" style="rounded=0;whiteSpace=wrap;html=1;" vertex="1" parent="1">
          <mxGeometry x="1690" y="450" width="120" height="60" as="geometry" />
        </mxCell>
        <mxCell id="-brsWAgwr_mBDMm-pLbp-43" style="edgeStyle=orthogonalEdgeStyle;rounded=0;orthogonalLoop=1;jettySize=auto;html=1;entryX=0;entryY=0.5;entryDx=0;entryDy=0;endArrow=none;endFill=0;" edge="1" parent="1" source="-brsWAgwr_mBDMm-pLbp-40" target="-brsWAgwr_mBDMm-pLbp-39">
          <mxGeometry relative="1" as="geometry" />
        </mxCell>
        <mxCell id="-brsWAgwr_mBDMm-pLbp-40" value="Pertenece" style="rhombus;whiteSpace=wrap;html=1;" vertex="1" parent="1">
          <mxGeometry x="1550" y="440" width="80" height="80" as="geometry" />
        </mxCell>
        <mxCell id="-brsWAgwr_mBDMm-pLbp-53" style="edgeStyle=orthogonalEdgeStyle;rounded=0;orthogonalLoop=1;jettySize=auto;html=1;endArrow=none;endFill=0;" edge="1" parent="1" source="-brsWAgwr_mBDMm-pLbp-51" target="-brsWAgwr_mBDMm-pLbp-52">
          <mxGeometry relative="1" as="geometry" />
        </mxCell>
        <mxCell id="-brsWAgwr_mBDMm-pLbp-54" style="edgeStyle=orthogonalEdgeStyle;rounded=0;orthogonalLoop=1;jettySize=auto;html=1;entryX=0.5;entryY=0;entryDx=0;entryDy=0;endArrow=none;endFill=0;" edge="1" parent="1" source="-brsWAgwr_mBDMm-pLbp-51" target="-brsWAgwr_mBDMm-pLbp-39">
          <mxGeometry relative="1" as="geometry">
            <Array as="points">
              <mxPoint x="1750" y="400" />
              <mxPoint x="1750" y="400" />
            </Array>
          </mxGeometry>
        </mxCell>
        <mxCell id="-brsWAgwr_mBDMm-pLbp-51" value="Pertenece" style="rhombus;whiteSpace=wrap;html=1;" vertex="1" parent="1">
          <mxGeometry x="1710" y="220" width="80" height="80" as="geometry" />
        </mxCell>
        <mxCell id="-brsWAgwr_mBDMm-pLbp-52" value="Poblacion" style="rounded=0;whiteSpace=wrap;html=1;" vertex="1" parent="1">
          <mxGeometry x="1690" y="50" width="120" height="60" as="geometry" />
        </mxCell>
        <mxCell id="-brsWAgwr_mBDMm-pLbp-63" style="edgeStyle=orthogonalEdgeStyle;rounded=0;orthogonalLoop=1;jettySize=auto;html=1;entryX=0;entryY=0.25;entryDx=0;entryDy=0;endArrow=none;endFill=0;" edge="1" parent="1" source="-brsWAgwr_mBDMm-pLbp-55" target="-brsWAgwr_mBDMm-pLbp-1">
          <mxGeometry relative="1" as="geometry" />
        </mxCell>
        <mxCell id="-brsWAgwr_mBDMm-pLbp-55" value="Nombre" style="ellipse;whiteSpace=wrap;html=1;" vertex="1" parent="1">
          <mxGeometry x="20" y="320" width="50" height="30" as="geometry" />
        </mxCell>
        <mxCell id="-brsWAgwr_mBDMm-pLbp-64" style="edgeStyle=orthogonalEdgeStyle;rounded=0;orthogonalLoop=1;jettySize=auto;html=1;entryX=0.25;entryY=0;entryDx=0;entryDy=0;endArrow=none;endFill=0;" edge="1" parent="1" source="-brsWAgwr_mBDMm-pLbp-56" target="-brsWAgwr_mBDMm-pLbp-1">
          <mxGeometry relative="1" as="geometry" />
        </mxCell>
        <mxCell id="-brsWAgwr_mBDMm-pLbp-56" value="Apellidos" style="ellipse;whiteSpace=wrap;html=1;" vertex="1" parent="1">
          <mxGeometry x="100" y="310" width="50" height="30" as="geometry" />
        </mxCell>
        <mxCell id="-brsWAgwr_mBDMm-pLbp-57" value="Telefono" style="ellipse;whiteSpace=wrap;html=1;" vertex="1" parent="1">
          <mxGeometry x="170" y="310" width="50" height="30" as="geometry" />
        </mxCell>
        <mxCell id="-brsWAgwr_mBDMm-pLbp-62" style="edgeStyle=orthogonalEdgeStyle;rounded=0;orthogonalLoop=1;jettySize=auto;html=1;endArrow=none;endFill=0;" edge="1" parent="1" source="-brsWAgwr_mBDMm-pLbp-58" target="-brsWAgwr_mBDMm-pLbp-1">
          <mxGeometry relative="1" as="geometry" />
        </mxCell>
        <mxCell id="-brsWAgwr_mBDMm-pLbp-58" value="&lt;b&gt;DNI&lt;/b&gt;" style="ellipse;whiteSpace=wrap;html=1;" vertex="1" parent="1">
          <mxGeometry x="20" y="405" width="50" height="30" as="geometry" />
        </mxCell>
        <mxCell id="-brsWAgwr_mBDMm-pLbp-67" style="edgeStyle=orthogonalEdgeStyle;rounded=0;orthogonalLoop=1;jettySize=auto;html=1;endArrow=none;endFill=0;" edge="1" parent="1" source="-brsWAgwr_mBDMm-pLbp-59" target="-brsWAgwr_mBDMm-pLbp-1">
          <mxGeometry relative="1" as="geometry" />
        </mxCell>
        <mxCell id="-brsWAgwr_mBDMm-pLbp-59" value="Fech_nac" style="ellipse;whiteSpace=wrap;html=1;" vertex="1" parent="1">
          <mxGeometry x="230" y="405" width="70" height="30" as="geometry" />
        </mxCell>
        <mxCell id="-brsWAgwr_mBDMm-pLbp-66" style="edgeStyle=orthogonalEdgeStyle;rounded=0;orthogonalLoop=1;jettySize=auto;html=1;entryX=1;entryY=0.25;entryDx=0;entryDy=0;endArrow=none;endFill=0;" edge="1" parent="1" source="-brsWAgwr_mBDMm-pLbp-61" target="-brsWAgwr_mBDMm-pLbp-1">
          <mxGeometry relative="1" as="geometry" />
        </mxCell>
        <mxCell id="-brsWAgwr_mBDMm-pLbp-61" value="Domicilio" style="ellipse;whiteSpace=wrap;html=1;" vertex="1" parent="1">
          <mxGeometry x="240" y="320" width="50" height="30" as="geometry" />
        </mxCell>
        <mxCell id="-brsWAgwr_mBDMm-pLbp-65" style="edgeStyle=orthogonalEdgeStyle;rounded=0;orthogonalLoop=1;jettySize=auto;html=1;entryX=0.872;entryY=-0.032;entryDx=0;entryDy=0;entryPerimeter=0;endArrow=none;endFill=0;" edge="1" parent="1" source="-brsWAgwr_mBDMm-pLbp-57" target="-brsWAgwr_mBDMm-pLbp-1">
          <mxGeometry relative="1" as="geometry" />
        </mxCell>
        <mxCell id="-brsWAgwr_mBDMm-pLbp-71" style="edgeStyle=orthogonalEdgeStyle;rounded=0;orthogonalLoop=1;jettySize=auto;html=1;entryX=0;entryY=1;entryDx=0;entryDy=0;endArrow=none;endFill=0;" edge="1" parent="1" source="-brsWAgwr_mBDMm-pLbp-68" target="-brsWAgwr_mBDMm-pLbp-3">
          <mxGeometry relative="1" as="geometry" />
        </mxCell>
        <mxCell id="-brsWAgwr_mBDMm-pLbp-68" value="Aval" style="ellipse;whiteSpace=wrap;html=1;" vertex="1" parent="1">
          <mxGeometry x="30" y="900" width="70" height="30" as="geometry" />
        </mxCell>
        <mxCell id="-brsWAgwr_mBDMm-pLbp-72" style="edgeStyle=orthogonalEdgeStyle;rounded=0;orthogonalLoop=1;jettySize=auto;html=1;entryX=0.5;entryY=1;entryDx=0;entryDy=0;endArrow=none;endFill=0;" edge="1" parent="1" source="-brsWAgwr_mBDMm-pLbp-69" target="-brsWAgwr_mBDMm-pLbp-3">
          <mxGeometry relative="1" as="geometry" />
        </mxCell>
        <mxCell id="-brsWAgwr_mBDMm-pLbp-69" value="DNI" style="ellipse;whiteSpace=wrap;html=1;" vertex="1" parent="1">
          <mxGeometry x="115" y="900" width="70" height="30" as="geometry" />
        </mxCell>
        <mxCell id="-brsWAgwr_mBDMm-pLbp-74" style="edgeStyle=orthogonalEdgeStyle;rounded=0;orthogonalLoop=1;jettySize=auto;html=1;entryX=1;entryY=0.75;entryDx=0;entryDy=0;endArrow=none;endFill=0;" edge="1" parent="1" source="-brsWAgwr_mBDMm-pLbp-70" target="-brsWAgwr_mBDMm-pLbp-3">
          <mxGeometry relative="1" as="geometry" />
        </mxCell>
        <mxCell id="-brsWAgwr_mBDMm-pLbp-70" value="&lt;b&gt;Num_socio&lt;/b&gt;" style="ellipse;whiteSpace=wrap;html=1;" vertex="1" parent="1">
          <mxGeometry x="210" y="900" width="70" height="30" as="geometry" />
        </mxCell>
        <mxCell id="-brsWAgwr_mBDMm-pLbp-79" style="edgeStyle=orthogonalEdgeStyle;rounded=0;orthogonalLoop=1;jettySize=auto;html=1;entryX=0.5;entryY=1;entryDx=0;entryDy=0;endArrow=none;endFill=0;" edge="1" parent="1" source="-brsWAgwr_mBDMm-pLbp-75" target="-brsWAgwr_mBDMm-pLbp-12">
          <mxGeometry relative="1" as="geometry" />
        </mxCell>
        <mxCell id="-brsWAgwr_mBDMm-pLbp-75" value="&lt;b&gt;Codigo&lt;/b&gt;" style="ellipse;whiteSpace=wrap;html=1;" vertex="1" parent="1">
          <mxGeometry x="525" y="950" width="70" height="30" as="geometry" />
        </mxCell>
        <mxCell id="-brsWAgwr_mBDMm-pLbp-78" style="edgeStyle=orthogonalEdgeStyle;rounded=0;orthogonalLoop=1;jettySize=auto;html=1;entryX=0;entryY=1;entryDx=0;entryDy=0;endArrow=none;endFill=0;" edge="1" parent="1" source="-brsWAgwr_mBDMm-pLbp-76" target="-brsWAgwr_mBDMm-pLbp-12">
          <mxGeometry relative="1" as="geometry" />
        </mxCell>
        <mxCell id="-brsWAgwr_mBDMm-pLbp-76" value="metodo_envio" style="ellipse;whiteSpace=wrap;html=1;" vertex="1" parent="1">
          <mxGeometry x="410" y="930" width="80" height="30" as="geometry" />
        </mxCell>
        <mxCell id="-brsWAgwr_mBDMm-pLbp-77" value="num_pedido" style="ellipse;whiteSpace=wrap;html=1;" vertex="1" parent="1">
          <mxGeometry x="630" y="930" width="80" height="30" as="geometry" />
        </mxCell>
        <mxCell id="-brsWAgwr_mBDMm-pLbp-80" style="edgeStyle=orthogonalEdgeStyle;rounded=0;orthogonalLoop=1;jettySize=auto;html=1;entryX=0.862;entryY=0.969;entryDx=0;entryDy=0;entryPerimeter=0;endArrow=none;endFill=0;" edge="1" parent="1" source="-brsWAgwr_mBDMm-pLbp-77" target="-brsWAgwr_mBDMm-pLbp-12">
          <mxGeometry relative="1" as="geometry" />
        </mxCell>
        <mxCell id="-brsWAgwr_mBDMm-pLbp-85" style="edgeStyle=orthogonalEdgeStyle;rounded=0;orthogonalLoop=1;jettySize=auto;html=1;entryX=0;entryY=0.5;entryDx=0;entryDy=0;endArrow=none;endFill=0;" edge="1" parent="1" source="-brsWAgwr_mBDMm-pLbp-82" target="-brsWAgwr_mBDMm-pLbp-16">
          <mxGeometry relative="1" as="geometry" />
        </mxCell>
        <mxCell id="-brsWAgwr_mBDMm-pLbp-82" value="metodo_pago" style="ellipse;whiteSpace=wrap;html=1;" vertex="1" parent="1">
          <mxGeometry x="370" y="485" width="95" height="30" as="geometry" />
        </mxCell>
        <mxCell id="-brsWAgwr_mBDMm-pLbp-87" style="edgeStyle=orthogonalEdgeStyle;rounded=0;orthogonalLoop=1;jettySize=auto;html=1;entryX=0;entryY=0.75;entryDx=0;entryDy=0;endArrow=none;endFill=0;" edge="1" parent="1" source="-brsWAgwr_mBDMm-pLbp-83" target="-brsWAgwr_mBDMm-pLbp-16">
          <mxGeometry relative="1" as="geometry" />
        </mxCell>
        <mxCell id="-brsWAgwr_mBDMm-pLbp-83" value="&lt;b&gt;numero_pedido&lt;/b&gt;" style="ellipse;whiteSpace=wrap;html=1;" vertex="1" parent="1">
          <mxGeometry x="370" y="550" width="95" height="30" as="geometry" />
        </mxCell>
        <mxCell id="-brsWAgwr_mBDMm-pLbp-86" style="edgeStyle=orthogonalEdgeStyle;rounded=0;orthogonalLoop=1;jettySize=auto;html=1;entryX=0;entryY=0.25;entryDx=0;entryDy=0;endArrow=none;endFill=0;" edge="1" parent="1" source="-brsWAgwr_mBDMm-pLbp-84" target="-brsWAgwr_mBDMm-pLbp-16">
          <mxGeometry relative="1" as="geometry" />
        </mxCell>
        <mxCell id="-brsWAgwr_mBDMm-pLbp-84" value="cantidad_libros" style="ellipse;whiteSpace=wrap;html=1;" vertex="1" parent="1">
          <mxGeometry x="370" y="420" width="95" height="30" as="geometry" />
        </mxCell>
        <mxCell id="-brsWAgwr_mBDMm-pLbp-88" value="&lt;b&gt;nombre&lt;/b&gt;" style="ellipse;whiteSpace=wrap;html=1;" vertex="1" parent="1">
          <mxGeometry x="870" y="730" width="80" height="30" as="geometry" />
        </mxCell>
        <mxCell id="-brsWAgwr_mBDMm-pLbp-89" value="stock" style="ellipse;whiteSpace=wrap;html=1;" vertex="1" parent="1">
          <mxGeometry x="1010" y="730" width="80" height="30" as="geometry" />
        </mxCell>
        <mxCell id="-brsWAgwr_mBDMm-pLbp-90" style="edgeStyle=orthogonalEdgeStyle;rounded=0;orthogonalLoop=1;jettySize=auto;html=1;entryX=0.345;entryY=1.043;entryDx=0;entryDy=0;entryPerimeter=0;endArrow=none;endFill=0;" edge="1" parent="1" source="-brsWAgwr_mBDMm-pLbp-88" target="-brsWAgwr_mBDMm-pLbp-22">
          <mxGeometry relative="1" as="geometry" />
        </mxCell>
        <mxCell id="-brsWAgwr_mBDMm-pLbp-91" style="edgeStyle=orthogonalEdgeStyle;rounded=0;orthogonalLoop=1;jettySize=auto;html=1;entryX=0.567;entryY=1.014;entryDx=0;entryDy=0;entryPerimeter=0;endArrow=none;endFill=0;" edge="1" parent="1" source="-brsWAgwr_mBDMm-pLbp-89" target="-brsWAgwr_mBDMm-pLbp-22">
          <mxGeometry relative="1" as="geometry" />
        </mxCell>
        <mxCell id="-brsWAgwr_mBDMm-pLbp-97" style="edgeStyle=orthogonalEdgeStyle;rounded=0;orthogonalLoop=1;jettySize=auto;html=1;entryX=0;entryY=0.75;entryDx=0;entryDy=0;endArrow=none;endFill=0;" edge="1" parent="1" source="-brsWAgwr_mBDMm-pLbp-92" target="-brsWAgwr_mBDMm-pLbp-21">
          <mxGeometry relative="1" as="geometry" />
        </mxCell>
        <mxCell id="-brsWAgwr_mBDMm-pLbp-92" value="stock" style="ellipse;whiteSpace=wrap;html=1;" vertex="1" parent="1">
          <mxGeometry x="860" y="410" width="80" height="30" as="geometry" />
        </mxCell>
        <mxCell id="-brsWAgwr_mBDMm-pLbp-98" style="edgeStyle=orthogonalEdgeStyle;rounded=0;orthogonalLoop=1;jettySize=auto;html=1;endArrow=none;endFill=0;" edge="1" parent="1" source="-brsWAgwr_mBDMm-pLbp-93" target="-brsWAgwr_mBDMm-pLbp-21">
          <mxGeometry relative="1" as="geometry" />
        </mxCell>
        <mxCell id="-brsWAgwr_mBDMm-pLbp-93" value="editorial" style="ellipse;whiteSpace=wrap;html=1;" vertex="1" parent="1">
          <mxGeometry x="960" y="410" width="80" height="30" as="geometry" />
        </mxCell>
        <mxCell id="-brsWAgwr_mBDMm-pLbp-99" style="edgeStyle=orthogonalEdgeStyle;rounded=0;orthogonalLoop=1;jettySize=auto;html=1;entryX=1;entryY=0.75;entryDx=0;entryDy=0;endArrow=none;endFill=0;" edge="1" parent="1" source="-brsWAgwr_mBDMm-pLbp-94" target="-brsWAgwr_mBDMm-pLbp-21">
          <mxGeometry relative="1" as="geometry">
            <mxPoint x="1060" y="370" as="targetPoint" />
          </mxGeometry>
        </mxCell>
        <mxCell id="-brsWAgwr_mBDMm-pLbp-94" value="nombre" style="ellipse;whiteSpace=wrap;html=1;" vertex="1" parent="1">
          <mxGeometry x="1070" y="405" width="80" height="30" as="geometry" />
        </mxCell>
        <mxCell id="-brsWAgwr_mBDMm-pLbp-95" value="Autor" style="ellipse;whiteSpace=wrap;html=1;" vertex="1" parent="1">
          <mxGeometry x="830" y="280" width="80" height="30" as="geometry" />
        </mxCell>
        <mxCell id="-brsWAgwr_mBDMm-pLbp-101" style="edgeStyle=orthogonalEdgeStyle;rounded=0;orthogonalLoop=1;jettySize=auto;html=1;entryX=0.75;entryY=0;entryDx=0;entryDy=0;endArrow=none;endFill=0;" edge="1" parent="1" source="-brsWAgwr_mBDMm-pLbp-96" target="-brsWAgwr_mBDMm-pLbp-21">
          <mxGeometry relative="1" as="geometry" />
        </mxCell>
        <mxCell id="-brsWAgwr_mBDMm-pLbp-96" value="&lt;b&gt;IBAN&lt;/b&gt;" style="ellipse;whiteSpace=wrap;html=1;" vertex="1" parent="1">
          <mxGeometry x="1070" y="280" width="80" height="30" as="geometry" />
        </mxCell>
        <mxCell id="-brsWAgwr_mBDMm-pLbp-100" style="edgeStyle=orthogonalEdgeStyle;rounded=0;orthogonalLoop=1;jettySize=auto;html=1;entryX=0.185;entryY=-0.007;entryDx=0;entryDy=0;entryPerimeter=0;endArrow=none;endFill=0;" edge="1" parent="1" source="-brsWAgwr_mBDMm-pLbp-95" target="-brsWAgwr_mBDMm-pLbp-21">
          <mxGeometry relative="1" as="geometry" />
        </mxCell>
        <mxCell id="-brsWAgwr_mBDMm-pLbp-103" style="edgeStyle=orthogonalEdgeStyle;rounded=0;orthogonalLoop=1;jettySize=auto;html=1;endArrow=none;endFill=0;" edge="1" parent="1" source="-brsWAgwr_mBDMm-pLbp-102" target="-brsWAgwr_mBDMm-pLbp-30">
          <mxGeometry relative="1" as="geometry" />
        </mxCell>
        <mxCell id="-brsWAgwr_mBDMm-pLbp-102" value="&lt;b&gt;nombre&lt;/b&gt;" style="ellipse;whiteSpace=wrap;html=1;" vertex="1" parent="1">
          <mxGeometry x="1100" y="30" width="80" height="30" as="geometry" />
        </mxCell>
        <mxCell id="-brsWAgwr_mBDMm-pLbp-111" style="edgeStyle=orthogonalEdgeStyle;rounded=0;orthogonalLoop=1;jettySize=auto;html=1;entryX=0.25;entryY=0;entryDx=0;entryDy=0;endArrow=none;endFill=0;" edge="1" parent="1" source="-brsWAgwr_mBDMm-pLbp-106" target="-brsWAgwr_mBDMm-pLbp-34">
          <mxGeometry relative="1" as="geometry" />
        </mxCell>
        <mxCell id="-brsWAgwr_mBDMm-pLbp-106" value="&lt;b&gt;nombre&lt;/b&gt;" style="ellipse;whiteSpace=wrap;html=1;" vertex="1" parent="1">
          <mxGeometry x="1320" y="380" width="80" height="30" as="geometry" />
        </mxCell>
        <mxCell id="-brsWAgwr_mBDMm-pLbp-110" style="edgeStyle=orthogonalEdgeStyle;rounded=0;orthogonalLoop=1;jettySize=auto;html=1;entryX=0;entryY=0.75;entryDx=0;entryDy=0;endArrow=none;endFill=0;" edge="1" parent="1" source="-brsWAgwr_mBDMm-pLbp-107" target="-brsWAgwr_mBDMm-pLbp-34">
          <mxGeometry relative="1" as="geometry" />
        </mxCell>
        <mxCell id="-brsWAgwr_mBDMm-pLbp-107" value="direccion" style="ellipse;whiteSpace=wrap;html=1;" vertex="1" parent="1">
          <mxGeometry x="1320" y="550" width="80" height="30" as="geometry" />
        </mxCell>
        <mxCell id="-brsWAgwr_mBDMm-pLbp-112" value="" style="edgeStyle=orthogonalEdgeStyle;rounded=0;orthogonalLoop=1;jettySize=auto;html=1;endArrow=none;endFill=0;" edge="1" parent="1" source="-brsWAgwr_mBDMm-pLbp-109" target="-brsWAgwr_mBDMm-pLbp-34">
          <mxGeometry relative="1" as="geometry" />
        </mxCell>
        <mxCell id="-brsWAgwr_mBDMm-pLbp-109" value="Fecha_func" style="ellipse;whiteSpace=wrap;html=1;" vertex="1" parent="1">
          <mxGeometry x="1450" y="380" width="80" height="30" as="geometry" />
        </mxCell>
        <mxCell id="-brsWAgwr_mBDMm-pLbp-114" style="edgeStyle=orthogonalEdgeStyle;rounded=0;orthogonalLoop=1;jettySize=auto;html=1;entryX=1;entryY=0.5;entryDx=0;entryDy=0;endArrow=none;endFill=0;" edge="1" parent="1" source="-brsWAgwr_mBDMm-pLbp-113" target="-brsWAgwr_mBDMm-pLbp-39">
          <mxGeometry relative="1" as="geometry" />
        </mxCell>
        <mxCell id="-brsWAgwr_mBDMm-pLbp-113" value="&lt;b&gt;nombre&lt;/b&gt;" style="ellipse;whiteSpace=wrap;html=1;" vertex="1" parent="1">
          <mxGeometry x="1890" y="465" width="80" height="30" as="geometry" />
        </mxCell>
        <mxCell id="-brsWAgwr_mBDMm-pLbp-116" style="edgeStyle=orthogonalEdgeStyle;rounded=0;orthogonalLoop=1;jettySize=auto;html=1;endArrow=none;endFill=0;" edge="1" parent="1" source="-brsWAgwr_mBDMm-pLbp-115" target="-brsWAgwr_mBDMm-pLbp-52">
          <mxGeometry relative="1" as="geometry" />
        </mxCell>
        <mxCell id="-brsWAgwr_mBDMm-pLbp-115" value="&lt;b&gt;nombre&lt;/b&gt;" style="ellipse;whiteSpace=wrap;html=1;" vertex="1" parent="1">
          <mxGeometry x="1890" y="65" width="80" height="30" as="geometry" />
        </mxCell>
        <mxCell id="-brsWAgwr_mBDMm-pLbp-117" value="habitantes" style="ellipse;whiteSpace=wrap;html=1;" vertex="1" parent="1">
          <mxGeometry x="1900" y="150" width="80" height="30" as="geometry" />
        </mxCell>
        <mxCell id="-brsWAgwr_mBDMm-pLbp-119" style="edgeStyle=orthogonalEdgeStyle;rounded=0;orthogonalLoop=1;jettySize=auto;html=1;entryX=0.906;entryY=1.01;entryDx=0;entryDy=0;entryPerimeter=0;endArrow=none;endFill=0;" edge="1" parent="1" source="-brsWAgwr_mBDMm-pLbp-117" target="-brsWAgwr_mBDMm-pLbp-52">
          <mxGeometry relative="1" as="geometry" />
        </mxCell>
      </root>
    </mxGraphModel>
  </diagram>
</mxfile>
